<svg viewBox="0 0 100 100" xmlns="http://www.w3.org/2000/svg">
  <!-- Background circle with gradient -->
  <defs>
    <linearGradient id="bgGradient" x1="0%" y1="0%" x2="100%" y2="100%">
      <stop offset="0%" style="stop-color:#4F46E5;stop-opacity:1" />
      <stop offset="100%" style="stop-color:#7C3AED;stop-opacity:1" />
    </linearGradient>
    <linearGradient id="starGradient" x1="0%" y1="0%" x2="100%" y2="100%">
      <stop offset="0%" style="stop-color:#FCD34D;stop-opacity:1" />
      <stop offset="100%" style="stop-color:#F59E0B;stop-opacity:1" />
    </linearGradient>
    <linearGradient id="buildingGradient" x1="0%" y1="0%" x2="0%" y2="100%">
      <stop offset="0%" style="stop-color:#F3F4F6;stop-opacity:1" />
      <stop offset="100%" style="stop-color:#E5E7EB;stop-opacity:1" />
    </linearGradient>
  </defs>
  
  <!-- Main background circle -->
  <circle cx="50" cy="50" r="48" fill="url(#bgGradient)"/>
  
  <!-- Location pin base -->
  <path d="M50 15 C40 15, 32 23, 32 33 C32 43, 50 60, 50 60 C50 60, 68 43, 68 33 C68 23, 60 15, 50 15 Z" 
        fill="url(#buildingGradient)" stroke="#374151" stroke-width="1.5"/>
  
  <!-- Building/storefront inside pin -->
  <rect x="42" y="23" width="16" height="12" fill="#6366F1" rx="1"/>
  <rect x="44" y="25" width="3" height="3" fill="#E5E7EB"/>
  <rect x="48" y="25" width="3" height="3" fill="#E5E7EB"/>
  <rect x="52" y="25" width="3" height="3" fill="#E5E7EB"/>
  <rect x="44" y="29" width="3" height="3" fill="#E5E7EB"/>
  <rect x="52" y="29" width="3" height="3" fill="#E5E7EB"/>
  <rect x="48" y="31" width="3" height="4" fill="#F59E0B"/>
  
  <!-- Star rating constellation -->
  <g transform="translate(15, 70)">
    <!-- 5 stars in a slight arc -->
    <star cx="0" cy="0">
      <path d="M5 0 L6.5 3.5 L10 3.5 L7.5 6 L8.5 9.5 L5 7.5 L1.5 9.5 L2.5 6 L0 3.5 L3.5 3.5 Z" 
            fill="url(#starGradient)" transform="scale(0.8)"/>
    </star>
    <star cx="12" cy="-1">
      <path d="M5 0 L6.5 3.5 L10 3.5 L7.5 6 L8.5 9.5 L5 7.5 L1.5 9.5 L2.5 6 L0 3.5 L3.5 3.5 Z" 
            fill="url(#starGradient)" transform="scale(0.8) translate(12, -1)"/>
    </star>
    <star cx="24" cy="-1.5">
      <path d="M5 0 L6.5 3.5 L10 3.5 L7.5 6 L8.5 9.5 L5 7.5 L1.5 9.5 L2.5 6 L0 3.5 L3.5 3.5 Z" 
            fill="url(#starGradient)" transform="scale(0.8) translate(24, -1.5)"/>
    </star>
    <star cx="36" cy="-1">
      <path d="M5 0 L6.5 3.5 L10 3.5 L7.5 6 L8.5 9.5 L5 7.5 L1.5 9.5 L2.5 6 L0 3.5 L3.5 3.5 Z" 
            fill="url(#starGradient)" transform="scale(0.8) translate(36, -1)"/>
    </star>
    <star cx="48" cy="0">
      <path d="M5 0 L6.5 3.5 L10 3.5 L7.5 6 L8.5 9.5 L5 7.5 L1.5 9.5 L2.5 6 L0 3.5 L3.5 3.5 Z" 
            fill="url(#starGradient)" transform="scale(0.8) translate(48, 0)"/>
    </star>
  </g>
  
  <!-- Simplified 5 individual stars -->
  <path d="M24 75 L25 77.5 L27.5 77.5 L25.5 79.5 L26.5 82 L24 80.5 L21.5 82 L22.5 79.5 L20.5 77.5 L23 77.5 Z" 
        fill="url(#starGradient)" transform="scale(0.6)"/>
  <path d="M35 74 L36 76.5 L38.5 76.5 L36.5 78.5 L37.5 81 L35 79.5 L32.5 81 L33.5 78.5 L31.5 76.5 L34 76.5 Z" 
        fill="url(#starGradient)" transform="scale(0.6)"/>
  <path d="M46 73.5 L47 76 L49.5 76 L47.5 78 L48.5 80.5 L46 79 L43.5 80.5 L44.5 78 L42.5 76 L45 76 Z" 
        fill="url(#starGradient)" transform="scale(0.6)"/>
  <path d="M57 74 L58 76.5 L60.5 76.5 L58.5 78.5 L59.5 81 L57 79.5 L54.5 81 L55.5 78.5 L53.5 76.5 L56 76.5 Z" 
        fill="url(#starGradient)" transform="scale(0.6)"/>
  <path d="M68 75 L69 77.5 L71.5 77.5 L69.5 79.5 L70.5 82 L68 80.5 L65.5 82 L66.5 79.5 L64.5 77.5 L67 77.5 Z" 
        fill="url(#starGradient)" transform="scale(0.6)"/>
  
  <!-- Community connection dots -->
  <circle cx="20" cy="40" r="2" fill="#10B981" opacity="0.8"/>
  <circle cx="80" cy="30" r="2" fill="#10B981" opacity="0.8"/>
  <circle cx="75" cy="50" r="2" fill="#10B981" opacity="0.8"/>
  
  <!-- Connection lines -->
  <line x1="22" y1="41" x2="48" y2="47" stroke="#10B981" stroke-width="1" opacity="0.5"/>
  <line x1="78" y1="32" x2="52" y2="40" stroke="#10B981" stroke-width="1" opacity="0.5"/>
  <line x1="73" y1="48" x2="52" y2="43" stroke="#10B981" stroke-width="1" opacity="0.5"/>
</svg>